<svg width="16" height="17" viewBox="0 0 16 17" fill="none" xmlns="http://www.w3.org/2000/svg">
<mask id="mask0" mask-type="alpha" maskUnits="userSpaceOnUse" x="0" y="0" width="16" height="17">
<path fill-rule="evenodd" clip-rule="evenodd" d="M15.814 7.17705H8.18605V10.268H12.5767C12.1674 12.2316 10.4558 13.3589 8.18605 13.3589C5.50698 13.3589 3.34884 11.2498 3.34884 8.63159C3.34884 6.01341 5.50698 3.90432 8.18605 3.90432C9.33953 3.90432 10.3814 4.30432 11.2 4.95886L13.5814 2.63159C12.1302 1.39523 10.2698 0.631592 8.18605 0.631592C3.64651 0.631592 0 4.19523 0 8.63159C0 13.068 3.64651 16.6316 8.18605 16.6316C12.2791 16.6316 16 13.7225 16 8.63159C16 8.15886 15.9256 7.64977 15.814 7.17705Z" fill="white"/>
</mask>
<g mask="url(#mask0)">
<path d="M-0.744141 13.3588V3.9043L5.58144 8.63157L-0.744141 13.3588Z" fill="#FBBC05"/>
</g>
<mask id="mask1" mask-type="alpha" maskUnits="userSpaceOnUse" x="0" y="0" width="16" height="17">
<path fill-rule="evenodd" clip-rule="evenodd" d="M15.814 7.17705H8.18605V10.268H12.5767C12.1674 12.2316 10.4558 13.3589 8.18605 13.3589C5.50698 13.3589 3.34884 11.2498 3.34884 8.63159C3.34884 6.01341 5.50698 3.90432 8.18605 3.90432C9.33953 3.90432 10.3814 4.30432 11.2 4.95886L13.5814 2.63159C12.1302 1.39523 10.2698 0.631592 8.18605 0.631592C3.64651 0.631592 0 4.19523 0 8.63159C0 13.068 3.64651 16.6316 8.18605 16.6316C12.2791 16.6316 16 13.7225 16 8.63159C16 8.15886 15.9256 7.64977 15.814 7.17705Z" fill="white"/>
</mask>
<g mask="url(#mask1)">
<path d="M-0.744141 3.9043L5.58144 8.63157L8.18609 6.41339L17.1163 4.99521V-0.0957031H-0.744141V3.9043Z" fill="#EA4335"/>
</g>
<mask id="mask2" mask-type="alpha" maskUnits="userSpaceOnUse" x="0" y="0" width="16" height="17">
<path fill-rule="evenodd" clip-rule="evenodd" d="M15.814 7.17705H8.18605V10.268H12.5767C12.1674 12.2316 10.4558 13.3589 8.18605 13.3589C5.50698 13.3589 3.34884 11.2498 3.34884 8.63159C3.34884 6.01341 5.50698 3.90432 8.18605 3.90432C9.33953 3.90432 10.3814 4.30432 11.2 4.95886L13.5814 2.63159C12.1302 1.39523 10.2698 0.631592 8.18605 0.631592C3.64651 0.631592 0 4.19523 0 8.63159C0 13.068 3.64651 16.6316 8.18605 16.6316C12.2791 16.6316 16 13.7225 16 8.63159C16 8.15886 15.9256 7.64977 15.814 7.17705Z" fill="white"/>
</mask>
<g mask="url(#mask2)">
<path d="M-0.744141 13.3588L10.4186 4.99521L13.3582 5.35884L17.1163 -0.0957031V17.3588H-0.744141V13.3588Z" fill="#34A853"/>
</g>
<mask id="mask3" mask-type="alpha" maskUnits="userSpaceOnUse" x="0" y="0" width="16" height="17">
<path fill-rule="evenodd" clip-rule="evenodd" d="M15.814 7.17705H8.18605V10.268H12.5767C12.1674 12.2316 10.4558 13.3589 8.18605 13.3589C5.50698 13.3589 3.34884 11.2498 3.34884 8.63159C3.34884 6.01341 5.50698 3.90432 8.18605 3.90432C9.33953 3.90432 10.3814 4.30432 11.2 4.95886L13.5814 2.63159C12.1302 1.39523 10.2698 0.631592 8.18605 0.631592C3.64651 0.631592 0 4.19523 0 8.63159C0 13.068 3.64651 16.6316 8.18605 16.6316C12.2791 16.6316 16 13.7225 16 8.63159C16 8.15886 15.9256 7.64977 15.814 7.17705Z" fill="white"/>
</mask>
<g mask="url(#mask3)">
<path d="M17.1163 17.3588L5.58139 8.63157L4.09302 7.54066L17.1163 3.9043V17.3588Z" fill="#4285F4"/>
</g>
</svg>
